<?xml version="1.0" encoding="utf-8"?>
<!-- Generator: Adobe Illustrator 25.0.1, SVG Export Plug-In . SVG Version: 6.00 Build 0)  -->
<svg version="1.1"
	 id="Capa_1" xmlns:cc="http://creativecommons.org/ns#" xmlns:dc="http://purl.org/dc/elements/1.1/" xmlns:inkscape="http://www.inkscape.org/namespaces/inkscape" xmlns:rdf="http://www.w3.org/1999/02/22-rdf-syntax-ns#" xmlns:sodipodi="http://sodipodi.sourceforge.net/DTD/sodipodi-0.dtd" xmlns:svg="http://www.w3.org/2000/svg"
	 xmlns="http://www.w3.org/2000/svg" xmlns:xlink="http://www.w3.org/1999/xlink" x="0px" y="0px" viewBox="0 0 60 60"
	 style="enable-background:new 0 0 60 60;" xml:space="preserve">
<style type="text/css">
	.st0{fill:#0B5C92;}
</style>
<sodipodi:namedview  bordercolor="#666666" borderopacity="1" gridtolerance="10" guidetolerance="10" id="namedview35" inkscape:current-layer="Capa_1" inkscape:cx="-8.1355935" inkscape:cy="32.288135" inkscape:pageopacity="0" inkscape:pageshadow="2" inkscape:window-height="657" inkscape:window-maximized="1" inkscape:window-width="1280" inkscape:window-x="-8" inkscape:window-y="-8" inkscape:zoom="3.9333333" objecttolerance="10" pagecolor="#ffffff" showgrid="false">
	</sodipodi:namedview>
<path id="path3" inkscape:connector-curvature="0" class="st0" d="M38.9,0H6.5v60h47V14.6L38.9,0z M32.5,23h7c0.6,0,1,0.4,1,1
	s-0.4,1-1,1h-7c-0.6,0-1-0.4-1-1S31.9,23,32.5,23z M33.5,31c0,0.6-0.4,1-1,1h-10c-0.6,0-1-0.4-1-1s0.4-1,1-1h10
	C33.1,30,33.5,30.4,33.5,31z M28.2,23.3c0.2,0.2,0.3,0.4,0.3,0.7c0,0.3-0.1,0.5-0.3,0.7C28,24.9,27.8,25,27.5,25s-0.5-0.1-0.7-0.3
	c-0.2-0.2-0.3-0.4-0.3-0.7c0-0.3,0.1-0.5,0.3-0.7C27.2,22.9,27.8,22.9,28.2,23.3z M17.5,15h9c0.6,0,1,0.4,1,1c0,0.6-0.4,1-1,1h-9
	c-0.6,0-1-0.4-1-1S16.9,15,17.5,15z M17.5,23h5c0.6,0,1,0.4,1,1s-0.4,1-1,1h-5c-0.6,0-1-0.4-1-1S16.9,23,17.5,23z M16.8,30.3
	c0.4-0.4,1-0.4,1.4,0c0.2,0.2,0.3,0.4,0.3,0.7c0,0.3-0.1,0.5-0.3,0.7C18,31.9,17.8,32,17.5,32s-0.5-0.1-0.7-0.3
	c-0.2-0.2-0.3-0.4-0.3-0.7C16.5,30.7,16.6,30.5,16.8,30.3z M18.2,45.7C18,45.9,17.8,46,17.5,46c-0.3,0-0.5-0.1-0.7-0.3
	c-0.2-0.2-0.3-0.4-0.3-0.7c0-0.3,0.1-0.5,0.3-0.7c0.4-0.4,1-0.4,1.4,0c0.2,0.2,0.3,0.4,0.3,0.7C18.5,45.3,18.4,45.5,18.2,45.7z
	 M32.5,46h-10c-0.6,0-1-0.4-1-1s0.4-1,1-1h10c0.6,0,1,0.4,1,1S33.1,46,32.5,46z M34.5,39h-17c-0.6,0-1-0.4-1-1s0.4-1,1-1h17
	c0.6,0,1,0.4,1,1S35.1,39,34.5,39z M44.5,46h-7c-0.6,0-1-0.4-1-1s0.4-1,1-1h7c0.6,0,1,0.4,1,1S45.1,46,44.5,46z M38.5,38
	c0-0.3,0.1-0.5,0.3-0.7c0.4-0.4,1-0.4,1.4,0c0.2,0.2,0.3,0.4,0.3,0.7c0,0.3-0.1,0.5-0.3,0.7C40,38.9,39.8,39,39.5,39
	s-0.5-0.1-0.7-0.3C38.6,38.5,38.5,38.3,38.5,38z M45.2,38.7C45,38.9,44.8,39,44.5,39s-0.5-0.1-0.7-0.3c-0.2-0.2-0.3-0.5-0.3-0.7
	c0-0.3,0.1-0.5,0.3-0.7c0.4-0.4,1-0.4,1.4,0c0.2,0.2,0.3,0.4,0.3,0.7C45.5,38.3,45.4,38.5,45.2,38.7z M44.5,32h-7c-0.6,0-1-0.4-1-1
	s0.4-1,1-1h7c0.6,0,1,0.4,1,1S45.1,32,44.5,32z M45.2,24.7C45,24.9,44.8,25,44.5,25s-0.5-0.1-0.7-0.3c-0.2-0.2-0.3-0.4-0.3-0.7
	c0-0.3,0.1-0.5,0.3-0.7c0.4-0.4,1-0.4,1.4,0c0.2,0.2,0.3,0.4,0.3,0.7C45.5,24.3,45.4,24.5,45.2,24.7z M37.5,16V2l14,14H37.5z"/>
<g id="g5">
</g>
<g id="g7">
</g>
<g id="g9">
</g>
<g id="g11">
</g>
<g id="g13">
</g>
<g id="g15">
</g>
<g id="g17">
</g>
<g id="g19">
</g>
<g id="g21">
</g>
<g id="g23">
</g>
<g id="g25">
</g>
<g id="g27">
</g>
<g id="g29">
</g>
<g id="g31">
</g>
<g id="g33">
</g>
</svg>
